{
	"asset":{
		"generator":"Khronos glTF Blender I/O v4.0.44",
		"version":"2.0"
	},
	"extensionsUsed":[
		"KHR_materials_specular",
		"KHR_materials_ior"
	],
	"scene":0,
	"scenes":[
		{
			"name":"Scene",
			"nodes":[
				0,
				1,
				2
			]
		}
	],
	"nodes":[
		{
			"mesh":0,
			"name":"door_left",
			"rotation":[
				0.7071067690849304,
				0,
				0,
				0.7071068286895752
			],
			"scale":[
				0.0022589925210922956,
				0.0022589925210922956,
				0.0022589925210922956
			],
			"translation":[
				-0.29843413829803467,
				0.04718402773141861,
				0.6661865711212158
			]
		},
		{
			"mesh":1,
			"name":"rand",
			"rotation":[
				0.7071067690849304,
				0,
				0,
				0.7071068286895752
			],
			"scale":[
				0.0022589925210922956,
				0.0022589925210922956,
				0.0022589925210922956
			],
			"translation":[
				-0.29843413829803467,
				0.04718402773141861,
				0.6661865711212158
			]
		},
		{
			"mesh":2,
			"name":"door_right",
			"rotation":[
				0.7071067690849304,
				0,
				0,
				0.7071068286895752
			],
			"scale":[
				0.0022589925210922956,
				0.0022589925210922956,
				0.0022589925210922956
			],
			"translation":[
				-0.29843413829803467,
				0.04718402773141861,
				0.6661865711212158
			]
		}
	],
	"materials":[
		{
			"doubleSided":true,
			"extensions":{
				"KHR_materials_specular":{
					"specularFactor":0.699999988079071
				},
				"KHR_materials_ior":{
					"ior":1
				}
			},
			"name":"frame.006",
			"pbrMetallicRoughness":{
				"baseColorFactor":[
					0.31360000371932983,
					0.3135870099067688,
					0.3135870099067688,
					1
				],
				"metallicFactor":0,
				"roughnessFactor":0.6541563272476196
			}
		},
		{
			"doubleSided":true,
			"name":"silver_spraypaint.006",
			"pbrMetallicRoughness":{
				"baseColorFactor":[
					0.6736279726028442,
					0.6736279726028442,
					0.6736279726028442,
					1
				],
				"metallicFactor":0,
				"roughnessFactor":0.846606969833374
			}
		},
		{
			"alphaMode":"BLEND",
			"doubleSided":true,
			"extensions":{
				"KHR_materials_specular":{
					"specularFactor":0.20784400403499603
				},
				"KHR_materials_ior":{
					"ior":1
				}
			},
			"name":"Glass.006",
			"pbrMetallicRoughness":{
				"baseColorFactor":[
					0.1662749946117401,
					0.1662749946117401,
					0.1662749946117401,
					0.505882978439331
				],
				"metallicFactor":0,
				"roughnessFactor":0.6900347471237183
			}
		}
	],
	"meshes":[
		{
			"name":"Cube.007_Cube.003_chr_Cube.007_Cube.003_chr_frame.001",
			"primitives":[
				{
					"attributes":{
						"POSITION":0,
						"NORMAL":1
					},
					"indices":2,
					"material":0
				},
				{
					"attributes":{
						"POSITION":3,
						"NORMAL":4
					},
					"indices":5,
					"material":1
				},
				{
					"attributes":{
						"POSITION":6,
						"NORMAL":7
					},
					"indices":8,
					"material":2
				}
			]
		},
		{
			"name":"Cube.010_chrome_Cube.010_chrome_frame.001",
			"primitives":[
				{
					"attributes":{
						"POSITION":9,
						"NORMAL":10
					},
					"indices":11,
					"material":0
				}
			]
		},
		{
			"name":"Cylinder.009_chrome_Cylinder.009_chrome_frame.001",
			"primitives":[
				{
					"attributes":{
						"POSITION":12,
						"NORMAL":13
					},
					"indices":14,
					"material":0
				},
				{
					"attributes":{
						"POSITION":15,
						"NORMAL":16
					},
					"indices":5,
					"material":1
				},
				{
					"attributes":{
						"POSITION":17,
						"NORMAL":18
					},
					"indices":19,
					"material":2
				}
			]
		}
	],
	"accessors":[
		{
			"bufferView":0,
			"componentType":5126,
			"count":1082,
			"max":[
				22.79234504699707,
				25.134429931640625,
				20.146652221679688
			],
			"min":[
				-76.30625915527344,
				-0.41413000226020813,
				-175.24465942382812
			],
			"type":"VEC3"
		},
		{
			"bufferView":1,
			"componentType":5126,
			"count":1082,
			"type":"VEC3"
		},
		{
			"bufferView":2,
			"componentType":5123,
			"count":1980,
			"type":"SCALAR"
		},
		{
			"bufferView":3,
			"componentType":5126,
			"count":66,
			"max":[
				12.792837142944336,
				23.73663902282715,
				-70.44768524169922
			],
			"min":[
				-64.60707092285156,
				21.020645141601562,
				-73.16361236572266
			],
			"type":"VEC3"
		},
		{
			"bufferView":4,
			"componentType":5126,
			"count":66,
			"type":"VEC3"
		},
		{
			"bufferView":5,
			"componentType":5123,
			"count":384,
			"type":"SCALAR"
		},
		{
			"bufferView":6,
			"componentType":5126,
			"count":24,
			"max":[
				10.02332592010498,
				13.143902778625488,
				7.754772186279297
			],
			"min":[
				-61.584171295166016,
				9.825502395629883,
				-162.85276794433594
			],
			"type":"VEC3"
		},
		{
			"bufferView":7,
			"componentType":5126,
			"count":24,
			"type":"VEC3"
		},
		{
			"bufferView":8,
			"componentType":5123,
			"count":36,
			"type":"SCALAR"
		},
		{
			"bufferView":9,
			"componentType":5126,
			"count":146,
			"max":[
				133.28594970703125,
				25.478857040405273,
				21.352313995361328
			],
			"min":[
				-86.35928344726562,
				-2.922935962677002,
				-188.62448120117188
			],
			"type":"VEC3"
		},
		{
			"bufferView":10,
			"componentType":5126,
			"count":146,
			"type":"VEC3"
		},
		{
			"bufferView":11,
			"componentType":5123,
			"count":276,
			"type":"SCALAR"
		},
		{
			"bufferView":12,
			"componentType":5126,
			"count":1089,
			"max":[
				122.57200622558594,
				25.134429931640625,
				20.146652221679688
			],
			"min":[
				23.422632217407227,
				-0.41413000226020813,
				-175.24465942382812
			],
			"type":"VEC3"
		},
		{
			"bufferView":13,
			"componentType":5126,
			"count":1089,
			"type":"VEC3"
		},
		{
			"bufferView":14,
			"componentType":5123,
			"count":1980,
			"type":"SCALAR"
		},
		{
			"bufferView":15,
			"componentType":5126,
			"count":66,
			"max":[
				110.08839416503906,
				23.73663902282715,
				-70.44768524169922
			],
			"min":[
				33.193443298339844,
				21.020645141601562,
				-73.16361236572266
			],
			"type":"VEC3"
		},
		{
			"bufferView":16,
			"componentType":5126,
			"count":66,
			"type":"VEC3"
		},
		{
			"bufferView":17,
			"componentType":5126,
			"count":24,
			"max":[
				108.07038879394531,
				13.143902778625488,
				7.754772186279297
			],
			"min":[
				36.46288299560547,
				9.825502395629883,
				-162.85276794433594
			],
			"type":"VEC3"
		},
		{
			"bufferView":18,
			"componentType":5126,
			"count":24,
			"type":"VEC3"
		},
		{
			"bufferView":19,
			"componentType":5123,
			"count":36,
			"type":"SCALAR"
		}
	],
	"bufferViews":[
		{
			"buffer":0,
			"byteLength":12984,
			"byteOffset":0,
			"target":34962
		},
		{
			"buffer":0,
			"byteLength":12984,
			"byteOffset":12984,
			"target":34962
		},
		{
			"buffer":0,
			"byteLength":3960,
			"byteOffset":25968,
			"target":34963
		},
		{
			"buffer":0,
			"byteLength":792,
			"byteOffset":29928,
			"target":34962
		},
		{
			"buffer":0,
			"byteLength":792,
			"byteOffset":30720,
			"target":34962
		},
		{
			"buffer":0,
			"byteLength":768,
			"byteOffset":31512,
			"target":34963
		},
		{
			"buffer":0,
			"byteLength":288,
			"byteOffset":32280,
			"target":34962
		},
		{
			"buffer":0,
			"byteLength":288,
			"byteOffset":32568,
			"target":34962
		},
		{
			"buffer":0,
			"byteLength":72,
			"byteOffset":32856,
			"target":34963
		},
		{
			"buffer":0,
			"byteLength":1752,
			"byteOffset":32928,
			"target":34962
		},
		{
			"buffer":0,
			"byteLength":1752,
			"byteOffset":34680,
			"target":34962
		},
		{
			"buffer":0,
			"byteLength":552,
			"byteOffset":36432,
			"target":34963
		},
		{
			"buffer":0,
			"byteLength":13068,
			"byteOffset":36984,
			"target":34962
		},
		{
			"buffer":0,
			"byteLength":13068,
			"byteOffset":50052,
			"target":34962
		},
		{
			"buffer":0,
			"byteLength":3960,
			"byteOffset":63120,
			"target":34963
		},
		{
			"buffer":0,
			"byteLength":792,
			"byteOffset":67080,
			"target":34962
		},
		{
			"buffer":0,
			"byteLength":792,
			"byteOffset":67872,
			"target":34962
		},
		{
			"buffer":0,
			"byteLength":288,
			"byteOffset":68664,
			"target":34962
		},
		{
			"buffer":0,
			"byteLength":288,
			"byteOffset":68952,
			"target":34962
		},
		{
			"buffer":0,
			"byteLength":72,
			"byteOffset":69240,
			"target":34963
		}
	],
	"buffers":[
		{
			"byteLength":69312,
			"uri":"doors.bin"
		}
	]
}
