{
	"asset":{
		"generator":"Khronos glTF Blender I/O v4.0.44",
		"version":"2.0"
	},
	"extensionsUsed":[
		"KHR_texture_transform",
		"KHR_materials_specular",
		"KHR_materials_ior"
	],
	"extensionsRequired":[
		"KHR_texture_transform"
	],
	"scene":0,
	"scenes":[
		{
			"name":"Scene",
			"nodes":[
				0
			]
		}
	],
	"nodes":[
		{
			"mesh":0,
			"name":"Plane",
			"scale":[
				1.0449004173278809,
				1.0449004173278809,
				1.0449004173278809
			],
			"translation":[
				-0.804612398147583,
				-0.0016184449195861816,
				-0.1428583860397339
			]
		}
	],
	"materials":[
		{
			"doubleSided":true,
			"name":"Default",
			"pbrMetallicRoughness":{
				"baseColorTexture":{
					"extensions":{
						"KHR_texture_transform":{
							"offset":[
								0,
								-7
							],
							"scale":[
								8,
								8
							]
						}
					},
					"index":0
				},
				"metallicFactor":0,
				"roughnessFactor":0.5
			}
		},
		{
			"doubleSided":true,
			"name":"Outside",
			"pbrMetallicRoughness":{
				"baseColorTexture":{
					"extensions":{
						"KHR_texture_transform":{
							"offset":[
								0,
								-40.900001525878906
							],
							"scale":[
								41.900001525878906,
								41.900001525878906
							]
						}
					},
					"index":1
				},
				"metallicFactor":0,
				"roughnessFactor":0.5
			}
		},
		{
			"alphaMode":"BLEND",
			"doubleSided":true,
			"extensions":{
				"KHR_materials_specular":{
					"specularFactor":0.20784400403499603
				},
				"KHR_materials_ior":{
					"ior":1
				}
			},
			"name":"Glass",
			"pbrMetallicRoughness":{
				"baseColorFactor":[
					0.1662749946117401,
					0.1662749946117401,
					0.1662749946117401,
					0.505882978439331
				],
				"metallicFactor":0,
				"roughnessFactor":0.6900347471237183
			}
		}
	],
	"meshes":[
		{
			"name":"Plane",
			"primitives":[
				{
					"attributes":{
						"POSITION":0,
						"NORMAL":1,
						"TEXCOORD_0":2
					},
					"indices":3,
					"material":0
				},
				{
					"attributes":{
						"POSITION":4,
						"NORMAL":5,
						"TEXCOORD_0":6
					},
					"indices":7,
					"material":1
				},
				{
					"attributes":{
						"POSITION":8,
						"NORMAL":9,
						"TEXCOORD_0":10
					},
					"indices":11,
					"material":2
				}
			]
		}
	],
	"textures":[
		{
			"sampler":0,
			"source":0
		},
		{
			"sampler":0,
			"source":1
		}
	],
	"images":[
		{
			"mimeType":"image/jpeg",
			"name":"asphalt_06_diff_1k",
			"uri":"asphalt_06_diff_1k.jpg"
		},
		{
			"mimeType":"image/jpeg",
			"name":"blue_metal_plate_diff_1k",
			"uri":"blue_metal_plate_diff_1k.jpg"
		}
	],
	"accessors":[
		{
			"bufferView":0,
			"componentType":5126,
			"count":126,
			"max":[
				1.7918622493743896,
				0.44983112812042236,
				1.7308086156845093
			],
			"min":[
				-2.0064761638641357,
				0,
				-2.9469335079193115
			],
			"type":"VEC3"
		},
		{
			"bufferView":1,
			"componentType":5126,
			"count":126,
			"type":"VEC3"
		},
		{
			"bufferView":2,
			"componentType":5126,
			"count":126,
			"type":"VEC2"
		},
		{
			"bufferView":3,
			"componentType":5123,
			"count":264,
			"type":"SCALAR"
		},
		{
			"bufferView":4,
			"componentType":5126,
			"count":91,
			"max":[
				1.7918622493743896,
				0.44983112812042236,
				1.7308086156845093
			],
			"min":[
				-2.0064761638641357,
				0,
				-2.9469335079193115
			],
			"type":"VEC3"
		},
		{
			"bufferView":5,
			"componentType":5126,
			"count":91,
			"type":"VEC3"
		},
		{
			"bufferView":6,
			"componentType":5126,
			"count":91,
			"type":"VEC2"
		},
		{
			"bufferView":7,
			"componentType":5123,
			"count":186,
			"type":"SCALAR"
		},
		{
			"bufferView":8,
			"componentType":5126,
			"count":32,
			"max":[
				0.2927756607532501,
				0.44887715578079224,
				0.4730384051799774
			],
			"min":[
				-0.725609540939331,
				0.10935533046722412,
				-0.7558906078338623
			],
			"type":"VEC3"
		},
		{
			"bufferView":9,
			"componentType":5126,
			"count":32,
			"type":"VEC3"
		},
		{
			"bufferView":10,
			"componentType":5126,
			"count":32,
			"type":"VEC2"
		},
		{
			"bufferView":11,
			"componentType":5123,
			"count":48,
			"type":"SCALAR"
		}
	],
	"bufferViews":[
		{
			"buffer":0,
			"byteLength":1512,
			"byteOffset":0,
			"target":34962
		},
		{
			"buffer":0,
			"byteLength":1512,
			"byteOffset":1512,
			"target":34962
		},
		{
			"buffer":0,
			"byteLength":1008,
			"byteOffset":3024,
			"target":34962
		},
		{
			"buffer":0,
			"byteLength":528,
			"byteOffset":4032,
			"target":34963
		},
		{
			"buffer":0,
			"byteLength":1092,
			"byteOffset":4560,
			"target":34962
		},
		{
			"buffer":0,
			"byteLength":1092,
			"byteOffset":5652,
			"target":34962
		},
		{
			"buffer":0,
			"byteLength":728,
			"byteOffset":6744,
			"target":34962
		},
		{
			"buffer":0,
			"byteLength":372,
			"byteOffset":7472,
			"target":34963
		},
		{
			"buffer":0,
			"byteLength":384,
			"byteOffset":7844,
			"target":34962
		},
		{
			"buffer":0,
			"byteLength":384,
			"byteOffset":8228,
			"target":34962
		},
		{
			"buffer":0,
			"byteLength":256,
			"byteOffset":8612,
			"target":34962
		},
		{
			"buffer":0,
			"byteLength":96,
			"byteOffset":8868,
			"target":34963
		}
	],
	"samplers":[
		{
			"magFilter":9729,
			"minFilter":9987
		}
	],
	"buffers":[
		{
			"byteLength":8964,
			"uri":"school.bin"
		}
	]
}
